<svg xmlns="http://www.w3.org/2000/svg" viewBox="0 0 960 96" role="img" aria-label="Wave divider">
  <path
    fill="currentColor"
    d="M0 68
      C34 68 46 18 80 18
      C114 18 126 68 160 68
      C194 68 206 18 240 18
      C274 18 286 68 320 68
      C354 68 366 18 400 18
      C434 18 446 68 480 68
      C514 68 526 18 560 18
      C594 18 606 68 640 68
      C674 68 686 18 720 18
      C754 18 766 68 800 68
      C834 68 846 18 880 18
      C914 18 926 68 960 68
      L960 96
      L0 96
      Z"
  />
</svg>
